<svg width="24" height="25" viewBox="0 0 24 25" fill="none" xmlns="http://www.w3.org/2000/svg">
<path d="M5.89213 18.0834C5.62364 17.8149 5.60127 17.3935 5.82501 17.0996L5.89213 17.0228L15.215 7.70068L8.49293 7.71444C8.07871 7.71533 7.74221 7.38027 7.74131 6.96606C7.7405 6.5895 8.01734 6.27716 8.37889 6.22281L8.4897 6.21444L17.0273 6.19606C17.0819 6.19594 17.1351 6.20166 17.1865 6.21263C17.2015 6.2163 17.2169 6.22009 17.2322 6.22437C17.2456 6.2277 17.2589 6.23184 17.272 6.23633C17.2908 6.24315 17.3099 6.25053 17.3287 6.25871C17.3434 6.26481 17.3571 6.27133 17.3706 6.27824C17.3872 6.28699 17.4045 6.29668 17.4214 6.3071C17.4334 6.31423 17.4445 6.3215 17.4554 6.32906C17.4715 6.34044 17.4878 6.35266 17.5036 6.36561C17.5158 6.37535 17.5274 6.38547 17.5387 6.39595C17.5454 6.40244 17.5525 6.40921 17.5594 6.41615L17.5797 6.43696C17.5897 6.44778 17.5994 6.45889 17.6087 6.47028L17.5594 6.41615C17.5929 6.44962 17.6225 6.48546 17.6483 6.52314C17.6545 6.53209 17.6607 6.54152 17.6666 6.55108C17.6788 6.57081 17.6898 6.59054 17.6999 6.61062C17.7049 6.62057 17.71 6.63144 17.7149 6.64244C17.7247 6.6646 17.7332 6.68655 17.7406 6.70878C17.7441 6.71919 17.7475 6.73034 17.7507 6.74159C17.7559 6.76 17.7602 6.77802 17.7639 6.79615C17.7666 6.80897 17.769 6.82265 17.771 6.83645L17.7725 6.84715C17.7769 6.8801 17.7791 6.91329 17.7791 6.94648L17.7789 6.94761L17.7612 15.4859C17.7604 15.9001 17.4239 16.2352 17.0097 16.2344C16.6331 16.2336 16.322 15.9554 16.2691 15.5937L16.2612 15.4828L16.2743 8.76276L6.95279 18.0834C6.6599 18.3763 6.18502 18.3763 5.89213 18.0834Z" fill="#513E29"/>
</svg>
