<svg width="24" height="24" viewBox="0 0 24 24" fill="none" xmlns="http://www.w3.org/2000/svg">
<path fill-rule="evenodd" clip-rule="evenodd" d="M3.99283 5.11013C3.99483 5.11013 3.94483 5.16213 3.88183 5.22413C3.63983 5.45913 3.13883 5.94813 3.13378 6.97113C3.12583 8.40213 4.06683 11.0591 8.59783 15.5891C13.1078 20.0971 15.7608 21.0491 17.1948 21.0491H17.2158C18.2388 21.0441 18.7268 20.5421 18.9628 20.3011C19.0348 20.2271 19.0928 20.1731 19.1338 20.1391C20.1298 19.1371 20.6398 18.3911 20.6349 17.9131C20.6278 17.4251 20.0208 16.8481 19.1818 16.0501C18.9148 15.7961 18.6248 15.5201 18.3188 15.2141C17.5258 14.4231 17.1328 14.5581 16.2688 14.8621C15.0738 15.2811 13.4338 15.8511 10.8858 13.3021C8.33383 10.7521 8.90483 9.11413 9.32283 7.91913C9.62483 7.05513 9.76283 6.66113 8.96883 5.86713C8.65783 5.55713 8.37883 5.26313 8.12183 4.99313C7.32883 4.15913 6.75683 3.55613 6.27183 3.54913H6.26383C5.78483 3.54913 5.04083 4.06113 3.98783 5.11413C3.99083 5.11113 3.99283 5.11013 3.99283 5.11013ZM17.1958 22.5491C14.7038 22.5491 11.4548 20.5651 7.53783 16.6501C3.60583 12.7191 1.61883 9.46013 1.63375 6.96313C1.64283 5.31313 2.50783 4.46813 2.83283 4.15113C2.84983 4.13013 2.90783 4.07313 2.92783 4.05313C4.36183 2.61813 5.32883 2.03813 6.29083 2.04898C7.40783 2.06413 8.20283 2.90013 9.20883 3.95913C9.45783 4.22113 9.72784 4.50613 10.0288 4.80613C11.4888 6.26613 11.0728 7.45713 10.7388 8.41313C10.3748 9.45613 10.0598 10.3561 11.9458 12.2421C13.8338 14.1281 14.7338 13.8131 15.7728 13.4461C16.7298 13.1121 17.9178 12.6941 19.3798 14.1541C19.6758 14.4501 19.9568 14.7171 20.2158 14.9641C21.2798 15.9751 22.1198 16.7741 22.134 17.8941C22.1458 18.8491 21.5658 19.8221 20.1338 21.2551L19.4998 20.8251L20.0358 21.3491C19.7188 21.6741 18.8748 22.5401 17.2238 22.5491H17.1958Z" fill="#6F6559"/>
</svg>
