<svg width="36" height="36" viewBox="0 0 36 36" fill="none" xmlns="http://www.w3.org/2000/svg">
<path d="M16.6145 31.9044C16.519 31.9044 16.4246 31.8846 16.3371 31.8464C16.2496 31.8081 16.171 31.7521 16.1062 31.682L2.39938 16.8552C2.30801 16.7563 2.24744 16.633 2.22507 16.5002C2.20271 16.3675 2.21953 16.2311 2.27348 16.1078C2.32742 15.9845 2.41615 15.8795 2.5288 15.8059C2.64145 15.7322 2.77314 15.6929 2.90775 15.6929H9.50544C9.6045 15.6929 9.7024 15.7142 9.79255 15.7553C9.88269 15.7963 9.96298 15.8563 10.028 15.931L14.6089 21.2011C15.1039 20.1429 16.0623 18.3808 17.744 16.2337C20.2303 13.0595 24.8547 8.39116 32.7667 4.17694C32.9196 4.09551 33.0975 4.07437 33.2653 4.11771C33.433 4.16105 33.5784 4.26571 33.6728 4.41103C33.7671 4.55634 33.8035 4.73175 33.7749 4.90262C33.7462 5.07348 33.6545 5.22738 33.5179 5.33393C33.4877 5.35754 30.4371 7.75985 26.9263 12.1601C23.6951 16.2094 19.3999 22.8306 17.2864 31.3785C17.2492 31.5287 17.1629 31.6621 17.0411 31.7575C16.9193 31.8529 16.769 31.9047 16.6143 31.9047L16.6145 31.9044Z" fill="#E08F6C"/>
</svg>
