<svg width="171" height="19" viewBox="0 0 171 19" fill="none" xmlns="http://www.w3.org/2000/svg">
<mask id="path-1-outside-1_173_1909" maskUnits="userSpaceOnUse" x="0" y="0.0554199" width="142" height="19" fill="black">
<rect fill="white" y="0.0554199" width="142" height="19"/>
<path d="M1 17.8571V1.19821H2.4601L10.1196 14.1921H9.35368L16.9414 1.19821H18.4015V17.8571H16.702V3.83983H17.109L10.1196 15.739H9.28187L2.24467 3.83983H2.69946V17.8571H1Z"/>
<path d="M48.7271 17.8571V1.19821H50.1872L57.8468 14.1921H57.0808L64.6685 1.19821H66.1286V17.8571H64.4292V3.83983H64.8361L57.8468 15.739H57.009L49.9718 3.83983H50.4266V17.8571H48.7271Z"/>
<path d="M75.5613 8.64711H84.4176V10.1464H75.5613V8.64711ZM75.7528 16.334H85.8299V17.8571H73.9815V1.19821H85.4708V2.72131H75.7528V16.334Z"/>
<path d="M92.387 17.8571V1.19821H93.8471L105.408 15.6676H104.642V1.19821H106.39V17.8571H104.93L93.3924 3.38766H94.1583V17.8571H92.387Z"/>
<path d="M117.507 17.8571V2.72131H111.619V1.19821H125.167V2.72131H119.279V17.8571H117.507Z"/>
<path d="M134.753 17.9999C133.508 17.9999 132.311 17.8016 131.162 17.4049C130.029 16.9924 129.152 16.4689 128.529 15.8342L129.223 14.4777C129.814 15.0489 130.604 15.5328 131.593 15.9294C132.598 16.3102 133.652 16.5006 134.753 16.5006C135.806 16.5006 136.66 16.3737 137.314 16.1198C137.984 15.8501 138.471 15.4931 138.774 15.0489C139.093 14.6047 139.253 14.1128 139.253 13.5734C139.253 12.9229 139.061 12.3993 138.678 12.0027C138.311 11.6061 137.825 11.2967 137.218 11.0746C136.612 10.8366 135.942 10.6303 135.208 10.4558C134.473 10.2813 133.739 10.0988 133.005 9.90843C132.271 9.70218 131.593 9.43246 130.971 9.09928C130.364 8.76611 129.87 8.3298 129.487 7.79037C129.12 7.23508 128.936 6.51319 128.936 5.62472C128.936 4.7997 129.152 4.04609 129.583 3.36387C130.029 2.66578 130.708 2.11048 131.617 1.69798C132.527 1.26961 133.692 1.05542 135.112 1.05542C136.053 1.05542 136.987 1.19028 137.912 1.45999C138.838 1.71384 139.636 2.07082 140.306 2.53092L139.707 3.93503C138.989 3.45906 138.223 3.11002 137.41 2.8879C136.612 2.66578 135.838 2.55472 135.088 2.55472C134.082 2.55472 133.253 2.68958 132.598 2.95929C131.944 3.22901 131.457 3.59392 131.138 4.05402C130.835 4.49826 130.684 5.00596 130.684 5.57712C130.684 6.22761 130.867 6.75117 131.234 7.14781C131.617 7.54446 132.112 7.85383 132.718 8.07595C133.34 8.29807 134.019 8.49639 134.753 8.67091C135.487 8.84544 136.213 9.03582 136.931 9.24207C137.665 9.44833 138.335 9.71804 138.942 10.0512C139.564 10.3685 140.059 10.7969 140.426 11.3363C140.809 11.8758 141 12.5818 141 13.4544C141 14.2635 140.777 15.0172 140.33 15.7152C139.883 16.3975 139.197 16.9528 138.271 17.3811C137.362 17.7936 136.189 17.9999 134.753 17.9999Z"/>
</mask>
<path d="M1 17.8571V1.19821H2.4601L10.1196 14.1921H9.35368L16.9414 1.19821H18.4015V17.8571H16.702V3.83983H17.109L10.1196 15.739H9.28187L2.24467 3.83983H2.69946V17.8571H1Z" fill="white"/>
<path d="M48.7271 17.8571V1.19821H50.1872L57.8468 14.1921H57.0808L64.6685 1.19821H66.1286V17.8571H64.4292V3.83983H64.8361L57.8468 15.739H57.009L49.9718 3.83983H50.4266V17.8571H48.7271Z" fill="white"/>
<path d="M75.5613 8.64711H84.4176V10.1464H75.5613V8.64711ZM75.7528 16.334H85.8299V17.8571H73.9815V1.19821H85.4708V2.72131H75.7528V16.334Z" fill="white"/>
<path d="M92.387 17.8571V1.19821H93.8471L105.408 15.6676H104.642V1.19821H106.39V17.8571H104.93L93.3924 3.38766H94.1583V17.8571H92.387Z" fill="white"/>
<path d="M117.507 17.8571V2.72131H111.619V1.19821H125.167V2.72131H119.279V17.8571H117.507Z" fill="white"/>
<path d="M134.753 17.9999C133.508 17.9999 132.311 17.8016 131.162 17.4049C130.029 16.9924 129.152 16.4689 128.529 15.8342L129.223 14.4777C129.814 15.0489 130.604 15.5328 131.593 15.9294C132.598 16.3102 133.652 16.5006 134.753 16.5006C135.806 16.5006 136.66 16.3737 137.314 16.1198C137.984 15.8501 138.471 15.4931 138.774 15.0489C139.093 14.6047 139.253 14.1128 139.253 13.5734C139.253 12.9229 139.061 12.3993 138.678 12.0027C138.311 11.6061 137.825 11.2967 137.218 11.0746C136.612 10.8366 135.942 10.6303 135.208 10.4558C134.473 10.2813 133.739 10.0988 133.005 9.90843C132.271 9.70218 131.593 9.43246 130.971 9.09928C130.364 8.76611 129.87 8.3298 129.487 7.79037C129.12 7.23508 128.936 6.51319 128.936 5.62472C128.936 4.7997 129.152 4.04609 129.583 3.36387C130.029 2.66578 130.708 2.11048 131.617 1.69798C132.527 1.26961 133.692 1.05542 135.112 1.05542C136.053 1.05542 136.987 1.19028 137.912 1.45999C138.838 1.71384 139.636 2.07082 140.306 2.53092L139.707 3.93503C138.989 3.45906 138.223 3.11002 137.41 2.8879C136.612 2.66578 135.838 2.55472 135.088 2.55472C134.082 2.55472 133.253 2.68958 132.598 2.95929C131.944 3.22901 131.457 3.59392 131.138 4.05402C130.835 4.49826 130.684 5.00596 130.684 5.57712C130.684 6.22761 130.867 6.75117 131.234 7.14781C131.617 7.54446 132.112 7.85383 132.718 8.07595C133.34 8.29807 134.019 8.49639 134.753 8.67091C135.487 8.84544 136.213 9.03582 136.931 9.24207C137.665 9.44833 138.335 9.71804 138.942 10.0512C139.564 10.3685 140.059 10.7969 140.426 11.3363C140.809 11.8758 141 12.5818 141 13.4544C141 14.2635 140.777 15.0172 140.33 15.7152C139.883 16.3975 139.197 16.9528 138.271 17.3811C137.362 17.7936 136.189 17.9999 134.753 17.9999Z" fill="white"/>
<path d="M1 17.8571V1.19821H2.4601L10.1196 14.1921H9.35368L16.9414 1.19821H18.4015V17.8571H16.702V3.83983H17.109L10.1196 15.739H9.28187L2.24467 3.83983H2.69946V17.8571H1Z" stroke="white" mask="url(#path-1-outside-1_173_1909)"/>
<path d="M48.7271 17.8571V1.19821H50.1872L57.8468 14.1921H57.0808L64.6685 1.19821H66.1286V17.8571H64.4292V3.83983H64.8361L57.8468 15.739H57.009L49.9718 3.83983H50.4266V17.8571H48.7271Z" stroke="white" mask="url(#path-1-outside-1_173_1909)"/>
<path d="M75.5613 8.64711H84.4176V10.1464H75.5613V8.64711ZM75.7528 16.334H85.8299V17.8571H73.9815V1.19821H85.4708V2.72131H75.7528V16.334Z" stroke="white" mask="url(#path-1-outside-1_173_1909)"/>
<path d="M92.387 17.8571V1.19821H93.8471L105.408 15.6676H104.642V1.19821H106.39V17.8571H104.93L93.3924 3.38766H94.1583V17.8571H92.387Z" stroke="white" mask="url(#path-1-outside-1_173_1909)"/>
<path d="M117.507 17.8571V2.72131H111.619V1.19821H125.167V2.72131H119.279V17.8571H117.507Z" stroke="white" mask="url(#path-1-outside-1_173_1909)"/>
<path d="M134.753 17.9999C133.508 17.9999 132.311 17.8016 131.162 17.4049C130.029 16.9924 129.152 16.4689 128.529 15.8342L129.223 14.4777C129.814 15.0489 130.604 15.5328 131.593 15.9294C132.598 16.3102 133.652 16.5006 134.753 16.5006C135.806 16.5006 136.66 16.3737 137.314 16.1198C137.984 15.8501 138.471 15.4931 138.774 15.0489C139.093 14.6047 139.253 14.1128 139.253 13.5734C139.253 12.9229 139.061 12.3993 138.678 12.0027C138.311 11.6061 137.825 11.2967 137.218 11.0746C136.612 10.8366 135.942 10.6303 135.208 10.4558C134.473 10.2813 133.739 10.0988 133.005 9.90843C132.271 9.70218 131.593 9.43246 130.971 9.09928C130.364 8.76611 129.87 8.3298 129.487 7.79037C129.12 7.23508 128.936 6.51319 128.936 5.62472C128.936 4.7997 129.152 4.04609 129.583 3.36387C130.029 2.66578 130.708 2.11048 131.617 1.69798C132.527 1.26961 133.692 1.05542 135.112 1.05542C136.053 1.05542 136.987 1.19028 137.912 1.45999C138.838 1.71384 139.636 2.07082 140.306 2.53092L139.707 3.93503C138.989 3.45906 138.223 3.11002 137.41 2.8879C136.612 2.66578 135.838 2.55472 135.088 2.55472C134.082 2.55472 133.253 2.68958 132.598 2.95929C131.944 3.22901 131.457 3.59392 131.138 4.05402C130.835 4.49826 130.684 5.00596 130.684 5.57712C130.684 6.22761 130.867 6.75117 131.234 7.14781C131.617 7.54446 132.112 7.85383 132.718 8.07595C133.34 8.29807 134.019 8.49639 134.753 8.67091C135.487 8.84544 136.213 9.03582 136.931 9.24207C137.665 9.44833 138.335 9.71804 138.942 10.0512C139.564 10.3685 140.059 10.7969 140.426 11.3363C140.809 11.8758 141 12.5818 141 13.4544C141 14.2635 140.777 15.0172 140.33 15.7152C139.883 16.3975 139.197 16.9528 138.271 17.3811C137.362 17.7936 136.189 17.9999 134.753 17.9999Z" stroke="white" mask="url(#path-1-outside-1_173_1909)"/>
<path d="M31.0562 1V0.75H30.8062H24.8222H24.5722V1V6.9496V7.1996H24.8222H26.3182H26.5682V6.9496V2.7374H30.8062H31.0562V2.4874V1Z" fill="white" stroke="white" stroke-width="0.5"/>
<path d="M35.5429 17.8572L35.5429 18.1072L35.7929 18.1072L41.7769 18.1072L42.0269 18.1072L42.0269 17.8572L42.0269 11.9076L42.0269 11.6576L41.7769 11.6576L40.2809 11.6576L40.0309 11.6576L40.0309 11.9076L40.0309 16.1198L35.7929 16.1198L35.5429 16.1198L35.5429 16.3698L35.5429 17.8572Z" fill="white" stroke="white" stroke-width="0.5"/>
<path d="M41.7769 7.1996L42.0269 7.1996L42.0269 6.9496L42.0269 1L42.0269 0.75L41.7769 0.75L35.7929 0.75L35.5429 0.75L35.5429 1L35.5429 2.4874L35.5429 2.7374L35.7929 2.7374L40.0309 2.7374L40.0309 6.9496L40.0309 7.1996L40.2809 7.1996L41.7769 7.1996Z" fill="white" stroke="white" stroke-width="0.5"/>
<path d="M24.8222 11.6576L24.5722 11.6576L24.5722 11.9076L24.5722 17.8572L24.5722 18.1072L24.8222 18.1072L30.8062 18.1072L31.0562 18.1072L31.0562 17.8572L31.0562 16.3698L31.0562 16.1198L30.8062 16.1198L26.5682 16.1198L26.5682 11.9076L26.5682 11.6576L26.3182 11.6576L24.8222 11.6576Z" fill="white" stroke="white" stroke-width="0.5"/>
</svg>
