<svg width="64" height="46" viewBox="0 0 64 46" fill="none" xmlns="http://www.w3.org/2000/svg">
<path d="M56.9731 45.2428H7.02688C3.15225 45.2428 0 42.0906 0 38.216V7.78402C0 3.90939 3.15225 0.757141 7.02688 0.757141H42.375C43.0654 0.757141 43.625 1.31677 43.625 2.00714C43.625 2.69752 43.0654 3.25714 42.375 3.25714H7.02688C4.53075 3.25727 2.5 5.28802 2.5 7.78402V38.2159C2.5 40.712 4.53075 42.7428 7.02688 42.7428H56.9731C59.4693 42.7428 61.5 40.712 61.5 38.2159V7.78402C61.5 5.28789 59.4693 3.25714 56.9731 3.25714H52.375C51.6846 3.25714 51.125 2.69752 51.125 2.00714C51.125 1.31677 51.6846 0.757141 52.375 0.757141H56.9731C60.8478 0.757141 64 3.90939 64 7.78402V38.2159C64 42.0906 60.8478 45.2428 56.9731 45.2428Z" fill="#E08F6C"/>
<path d="M19.4172 29.1229V15.7264C19.4172 15.4516 19.5477 15.2456 19.8089 15.1081C20.5427 14.7221 22.0966 14.8425 22.0966 15.7264V29.123C22.0966 29.3841 21.9626 29.5903 21.6947 29.7414C20.9156 30.1814 19.4172 29.9725 19.4172 29.1229ZM23.8279 27.5978C23.8279 27.0055 24.3545 26.155 25.0026 26.155C25.181 26.155 25.3839 26.2406 25.6106 26.412C26.1979 26.8558 26.9026 27.8039 28.5064 27.8039C29.7071 27.8039 30.8147 27.2763 30.8147 26.0108C30.8147 24.624 29.455 24.0141 28.2179 23.486C25.8327 22.4701 24.1989 21.5001 24.1989 18.9828C24.1989 15.7384 27.1074 14.4736 30.3407 14.873C31.4596 15.0124 33.1231 15.3591 33.1231 16.4921C33.1231 17.0328 32.7655 17.9316 32.0514 17.9316C31.9277 17.9316 31.5909 17.8011 31.0415 17.54C30.4917 17.2793 29.8802 17.1484 29.2072 17.1484C26.7117 17.1484 26.4167 18.9199 27.3729 19.7761C28.3519 20.6536 29.4932 20.5745 31.7731 22.1154C32.7531 22.7783 33.494 24.072 33.494 25.7428C33.494 27.152 33.0439 28.2395 32.144 29.005C30.3361 30.5431 27.1034 30.4245 25.2292 29.3495C24.2947 28.8138 23.8279 28.2299 23.8279 27.5978ZM35.1631 25.3719V19.6216C35.1631 17.9866 35.5991 16.7913 36.4719 16.0354C38.2321 14.511 41.7361 14.5114 43.5102 16.0354C44.3894 16.7911 44.8294 17.9866 44.8294 19.6216V25.3719C44.8294 27.0071 44.3895 28.2025 43.5102 28.958C41.7409 30.4786 38.2364 30.4866 36.4719 28.958C35.5991 28.2025 35.1631 27.0071 35.1631 25.3719ZM37.8425 25.3719C37.8425 26.9521 38.5567 27.742 39.986 27.742C41.4287 27.742 42.15 26.9521 42.15 25.3719V19.6216C42.15 18.0418 41.4286 17.2514 39.986 17.2514C38.5569 17.2514 37.8425 18.0416 37.8425 19.6216V25.3719ZM47.3781 3.25726C46.6877 3.25726 46.1265 2.69764 46.1265 2.00726C46.1265 1.31689 46.6846 0.757263 47.375 0.757263H47.3781C48.0685 0.757263 48.6281 1.31689 48.6281 2.00726C48.6281 2.69764 48.0685 3.25726 47.3781 3.25726Z" fill="#E08F6C"/>
</svg>
