<svg width="64" height="64" viewBox="0 0 64 64" fill="none" xmlns="http://www.w3.org/2000/svg">
<path fill-rule="evenodd" clip-rule="evenodd" d="M13 16H19H21.4864H42.5136H45H62V28H44.6909C45.0926 28.636 45.4479 29.3042 45.7519 30H62V55H57V57H62H64V55V30V28V16V14H62H43.5227L39.0909 8H24.9091L20.4773 14H13V12V10H11H8H6V12V14H2H0V16V28V30V55V57H2H42V55H2V30H18.2481C18.5521 29.3042 18.9074 28.636 19.3091 28H2V16H6H8H11H13ZM45 55V57H48V55H45ZM51 55V57H54V55H51ZM25.9182 10H38.0817L41.0363 14H22.9637L25.9182 10ZM8 12H11V14H8V12ZM57 21H52V23H57V21ZM52 19H50V21V23V25H52H57H59V23V21V19H57H52Z" fill="#E08F6C"/>
<circle cx="32" cy="36" r="14" stroke="#E08F6C" stroke-width="2"/>
<path d="M28 29.0718C29.6029 28.1464 31.4771 27.8053 33.3032 28.1068C35.1293 28.4083 36.7944 29.3337 38.0148 30.7252C39.2351 32.1167 39.9352 33.8884 39.9958 35.7382C40.0563 37.5881 39.4736 39.4017 38.3469 40.8701C37.2201 42.3384 35.6191 43.3707 33.8166 43.791C32.0142 44.2113 30.1217 43.9936 28.4617 43.175C26.8018 42.3564 25.477 40.9875 24.7131 39.3016C23.9493 37.6158 23.7936 35.7172 24.2726 33.9294" stroke="#E08F6C" stroke-width="2"/>
</svg>
