<svg width="32" height="32" viewBox="0 0 32 32" fill="none" xmlns="http://www.w3.org/2000/svg">
<path d="M22.4888 22.217V17.6629C22.4888 15.4248 22.0203 13.7151 19.4817 13.7151C18.2577 13.7151 17.4417 14.3989 17.1092 15.0517H17.079V13.9171H14.6763V22.217H17.1848V18.0981C17.1848 17.0101 17.3812 15.9688 18.6808 15.9688C19.9652 15.9688 19.9803 17.1967 19.9803 18.1603V22.2015H22.4888V22.217ZM10.5963 13.9171H13.1048V22.217H10.5963V13.9171ZM11.8506 9.78271C11.0497 9.78271 10.3999 10.4511 10.3999 11.2748C10.3999 12.0986 11.0497 12.7825 11.8506 12.7825C12.6515 12.7825 13.3012 12.0986 13.3012 11.2748C13.3012 10.4511 12.6515 9.78271 11.8506 9.78271Z" fill="white"/>
<rect x="0.75" y="0.75" width="30.5" height="30.5" rx="3.25" stroke="white" stroke-width="1.5"/>
</svg>
