<svg width="32" height="32" viewBox="0 0 32 32" fill="none" xmlns="http://www.w3.org/2000/svg">
<rect x="0.75" y="0.75" width="30.5" height="29.6111" rx="3.25" stroke="white" stroke-width="1.5"/>
<mask id="path-2-inside-1_1_1958" fill="white">
<ellipse cx="24.8891" cy="7.11127" rx="1.77778" ry="1.77778"/>
</mask>
<path d="M24.6669 7.11127C24.6669 6.98854 24.7664 6.88905 24.8891 6.88905V10.8891C26.9755 10.8891 28.6669 9.19768 28.6669 7.11127H24.6669ZM24.8891 6.88905C25.0118 6.88905 25.1113 6.98854 25.1113 7.11127H21.1113C21.1113 9.19768 22.8027 10.8891 24.8891 10.8891V6.88905ZM25.1113 7.11127C25.1113 7.234 25.0118 7.3335 24.8891 7.3335V3.3335C22.8027 3.3335 21.1113 5.02486 21.1113 7.11127H25.1113ZM24.8891 7.3335C24.7664 7.3335 24.6669 7.234 24.6669 7.11127H28.6669C28.6669 5.02486 26.9755 3.3335 24.8891 3.3335V7.3335Z" fill="white" mask="url(#path-2-inside-1_1_1958)"/>
<path d="M22.1109 16.0003C22.1109 19.3753 19.3749 22.1114 15.9998 22.1114C12.6247 22.1114 9.88867 19.3753 9.88867 16.0003C9.88867 12.6252 12.6247 9.88916 15.9998 9.88916C19.3749 9.88916 22.1109 12.6252 22.1109 16.0003Z" stroke="white" stroke-width="2"/>
</svg>
