<svg width="48" height="48" viewBox="0 0 48 48" fill="none" xmlns="http://www.w3.org/2000/svg">
<path d="M21.7904 15.3382C21.7883 15.3397 21.7865 15.3411 21.785 15.3422C21.7842 15.3429 21.7834 15.3435 21.7826 15.3441L21.7822 15.3444L21.7755 15.3497L17.15 19.039V3.52005C19.3574 2.77822 21.6708 2.39987 24 2.4L24.0001 2.4C27.6973 2.39701 31.3312 3.34943 34.55 5.16318L21.7904 15.3382ZM2.4 24.0001V24C2.4 21.882 2.70827 19.8354 3.27931 17.9L15.9924 28.0389C16.0581 28.1268 16.1452 28.1964 16.2455 28.2411L20.6865 31.7826L5.56088 35.2348C3.49058 31.8542 2.39617 27.9657 2.4 24.0001ZM24 0.6C11.0972 0.6 0.6 11.0972 0.6 24C0.6 36.9033 11.0972 47.4 24 47.4C36.9033 47.4 47.4 36.9033 47.4 24C47.4 11.0972 36.9033 0.6 24 0.6ZM35.7342 5.88054C40.7365 9.13106 44.3182 14.3884 45.3172 20.5059L29.4386 16.8821C29.3545 16.8427 29.2629 16.8218 29.17 16.8209L23.6076 15.5516L35.7342 5.88054ZM31.6015 24L28.7392 29.9443L22.3085 31.4117L17.15 27.2983V20.7017L22.308 16.5883L28.7392 18.0562L31.6015 24ZM3.71433 16.584C5.80702 10.8781 10.2429 6.29685 15.85 4.00318V26.2615L3.71433 16.584ZM21.2851 45.4239C15.1117 44.6458 9.74193 41.2557 6.32256 36.3938L28.0177 31.442L21.2851 45.4239ZM22.6658 45.5529L32.323 25.4987L39.0531 39.4716C35.1592 43.2611 29.8484 45.6 24 45.6C23.5522 45.6 23.1082 45.5814 22.6658 45.5529ZM45.5995 23.9995C45.6 29.5633 43.4831 34.6406 40.0154 38.4741L32.9442 23.7904C32.9294 23.7465 32.9069 23.7075 32.8931 23.6835C32.8916 23.681 32.8903 23.6786 32.889 23.6765L30.3603 18.4255L45.496 21.8797C45.564 22.5776 45.5995 23.2843 45.5995 23.9995Z" fill="#E08F6C" stroke="#E08F6C" stroke-width="0.3"/>
</svg>
