<svg width="32" height="32" viewBox="0 0 32 32" fill="none" xmlns="http://www.w3.org/2000/svg">
<mask id="path-1-inside-1_1_1962" fill="white">
<path d="M18.9838 10.047H20.4443V7.43034C20.1924 7.39468 19.3258 7.31445 18.3165 7.31445C16.2107 7.31445 14.7681 8.67697 14.7681 11.1812V13.4859H12.4443V16.4111H14.7681V23.7716H17.6172V16.4118H19.8471L20.201 13.4866H17.6166V11.4713C17.6172 10.6258 17.8386 10.047 18.9838 10.047Z"/>
</mask>
<path d="M18.9838 10.047H20.4443V7.43034C20.1924 7.39468 19.3258 7.31445 18.3165 7.31445C16.2107 7.31445 14.7681 8.67697 14.7681 11.1812V13.4859H12.4443V16.4111H14.7681V23.7716H17.6172V16.4118H19.8471L20.201 13.4866H17.6166V11.4713C17.6172 10.6258 17.8386 10.047 18.9838 10.047Z" fill="white"/>
<path d="M20.4443 10.047V31.3804H41.7777V10.047H20.4443ZM20.4443 7.43034H41.7777V-11.0967L23.4334 -13.6926L20.4443 7.43034ZM14.7681 13.4859V34.8192H36.1015V13.4859H14.7681ZM12.4443 13.4859V-7.84745H-8.889V13.4859H12.4443ZM12.4443 16.4111H-8.889V37.7445H12.4443V16.4111ZM14.7681 16.4111H36.1015V-4.92219H14.7681V16.4111ZM14.7681 23.7716H-6.56519V45.1049H14.7681V23.7716ZM17.6172 23.7716V45.1049H38.9506V23.7716H17.6172ZM17.6172 16.4118V-4.92151H-3.7161V16.4118H17.6172ZM19.8471 16.4118V37.7452H38.7546L41.0259 18.9746L19.8471 16.4118ZM20.201 13.4866L41.3799 16.0493L44.2714 -7.84677L20.201 -7.84677V13.4866ZM17.6166 13.4866H-3.71676V34.8199H17.6166V13.4866ZM17.6166 11.4713L-3.71676 11.4544L-3.71676 11.4628V11.4713H17.6166ZM18.9838 31.3804H20.4443V-11.2863H18.9838V31.3804ZM41.7777 10.047V7.43034H-0.888998V10.047H41.7777ZM23.4334 -13.6926C22.058 -13.8872 20.1816 -14.0189 18.3165 -14.0189V28.6478C18.2783 28.6478 18.2753 28.6471 18.2702 28.6468C18.2617 28.6462 18.2196 28.6434 18.1373 28.6356C18.0958 28.6317 18.0273 28.6249 17.9346 28.6145C17.8568 28.6057 17.6857 28.5858 17.4553 28.5532L23.4334 -13.6926ZM18.3165 -14.0189C12.5688 -14.0189 5.69158 -12.0484 0.320106 -6.42041C-4.97138 -0.876236 -6.56519 5.86625 -6.56519 11.1812H36.1015C36.1015 13.9919 35.2289 18.801 31.1852 23.0379C27.0614 27.3586 21.9584 28.6478 18.3165 28.6478V-14.0189ZM-6.56519 11.1812V13.4859H36.1015V11.1812H-6.56519ZM14.7681 -7.84745H12.4443V34.8192H14.7681V-7.84745ZM-8.889 13.4859V16.4111H33.7777V13.4859H-8.889ZM12.4443 37.7445H14.7681V-4.92219H12.4443V37.7445ZM-6.56519 16.4111V23.7716H36.1015V16.4111H-6.56519ZM14.7681 45.1049H17.6172V2.43826H14.7681V45.1049ZM38.9506 23.7716V16.4118H-3.7161V23.7716H38.9506ZM17.6172 37.7452H19.8471V-4.92151H17.6172V37.7452ZM41.0259 18.9746L41.3799 16.0493L-0.977823 10.9238L-1.33179 13.8491L41.0259 18.9746ZM20.201 -7.84677H17.6166V34.8199H20.201V-7.84677ZM38.9499 13.4866V11.4713H-3.71676V13.4866H38.9499ZM38.9499 11.4881C38.9496 11.8228 39.1736 17.9135 34.5857 23.6984C29.0618 30.6634 21.6396 31.3804 18.9838 31.3804V-11.2863C15.1827 -11.2863 7.07727 -10.28 1.15623 -2.81419C-3.82882 3.47143 -3.71582 10.2742 -3.71676 11.4544L38.9499 11.4881Z" fill="white" mask="url(#path-1-inside-1_1_1962)"/>
<rect x="0.75" y="0.75" width="30.5" height="30.5" rx="3.25" stroke="white" stroke-width="1.5"/>
</svg>
